<?xml version="1.0" standalone="no"?>
<!DOCTYPE svg PUBLIC "-//W3C//DTD SVG 20010904//EN"
 "http://www.w3.org/TR/2001/REC-SVG-20010904/DTD/svg10.dtd">
<svg version="1.0" xmlns="http://www.w3.org/2000/svg"
 width="753.000000pt" height="1192.000000pt" viewBox="0 0 753.000000 1192.000000"
 preserveAspectRatio="xMidYMid meet">
<metadata>
Created by potrace 1.16, written by Peter Selinger 2001-2019
</metadata>
<g transform="translate(0.000000,1192.000000) scale(0.100000,-0.100000)"
fill="#000000" stroke="none">
<path d="M2685 11479 c-4 -11 -9 -18 -12 -15 -3 3 -12 -1 -20 -9 -18 -18 -60
-20 -66 -2 -3 9 -12 8 -40 -5 -26 -13 -37 -14 -41 -5 -3 8 -10 6 -23 -8 -34
-38 -70 -55 -102 -49 -18 4 -37 2 -45 -5 -10 -8 -16 -9 -21 -1 -14 23 -85 -7
-85 -36 0 -10 -14 -14 -50 -14 -27 0 -50 -4 -50 -9 0 -6 -9 -9 -19 -8 -11 0
-19 6 -18 12 4 21 -35 3 -68 -33 -19 -20 -35 -40 -35 -44 0 -5 -11 -8 -24 -8
-13 0 -29 -7 -36 -15 -7 -8 -20 -15 -29 -15 -9 0 -28 -13 -44 -29 -15 -16 -48
-40 -75 -52 -26 -13 -64 -40 -85 -60 -35 -33 -37 -39 -26 -57 11 -18 10 -24
-11 -44 -36 -35 -76 -58 -99 -58 -14 0 -23 -9 -27 -27 -4 -16 -12 -31 -18 -35
-8 -5 -7 -11 2 -20 17 -17 15 -38 -4 -38 -8 0 -12 -4 -9 -10 3 -6 -5 -10 -19
-10 -21 0 -25 -6 -31 -41 -4 -26 -3 -45 4 -52 17 -17 13 -31 -11 -42 -14 -6
-22 -18 -21 -30 1 -10 -6 -25 -15 -32 -15 -11 -15 -14 -2 -23 13 -9 13 -12 -2
-21 -10 -5 -18 -17 -18 -25 0 -9 -8 -28 -19 -42 -30 -43 -64 -130 -58 -151 3
-12 -3 -27 -14 -37 -13 -11 -19 -30 -19 -53 2 -64 -12 -191 -21 -197 -15 -9
-10 -24 6 -18 17 7 21 -11 5 -21 -17 -10 -11 -51 9 -69 12 -11 17 -25 13 -38
-4 -17 -2 -19 17 -13 24 7 26 1 10 -44 -9 -24 -9 -35 0 -44 6 -6 11 -21 11
-33 0 -32 10 -55 22 -48 6 4 9 -16 7 -51 -2 -36 2 -59 9 -64 7 -4 12 -16 11
-27 -5 -51 2 -76 21 -81 13 -4 20 -14 20 -30 0 -14 9 -34 21 -44 11 -9 20 -20
20 -23 0 -3 1 -11 4 -18 2 -7 8 -31 13 -53 5 -22 14 -39 20 -37 19 3 14 -13
-20 -79 -29 -55 -32 -70 -36 -174 l-4 -114 38 -68 c50 -89 78 -140 100 -183
24 -48 50 -81 58 -73 3 3 6 -2 6 -12 0 -20 118 -145 137 -145 7 0 10 -7 7 -15
-10 -25 81 -75 138 -75 54 0 106 18 127 43 7 10 17 17 22 17 4 0 24 -35 44
-77 109 -230 173 -574 163 -865 -4 -123 -18 -175 -51 -195 -8 -4 -27 -32 -43
-62 -22 -42 -40 -61 -77 -80 -26 -14 -55 -33 -65 -42 -32 -28 -43 -31 -59 -17
-9 7 -14 8 -10 2 4 -7 -3 -11 -21 -11 -20 -1 -40 -15 -77 -55 -27 -31 -69 -65
-91 -78 -25 -13 -48 -36 -58 -57 -9 -19 -12 -32 -6 -28 6 4 10 -6 10 -24 0
-25 -8 -37 -42 -61 -84 -60 -92 -65 -117 -86 -14 -12 -37 -27 -50 -33 -32 -18
-199 -139 -239 -175 -18 -17 -56 -47 -85 -69 -29 -21 -108 -91 -177 -155 -158
-149 -162 -152 -240 -241 -36 -41 -91 -101 -124 -135 -32 -34 -77 -83 -100
-110 -22 -26 -53 -62 -68 -80 -60 -69 -140 -254 -183 -423 l-28 -112 16 -168
c14 -140 21 -176 42 -218 38 -74 70 -188 110 -390 38 -196 68 -273 150 -395
25 -36 49 -85 54 -110 12 -52 14 -156 4 -215 -5 -32 -8 -36 -15 -20 -4 12 -8
-57 -8 -165 0 -102 -2 -287 -4 -413 -4 -237 4 -316 38 -392 10 -22 31 -67 46
-100 15 -33 33 -75 40 -93 7 -17 16 -32 21 -32 5 0 9 -6 9 -13 0 -7 9 -31 19
-53 11 -23 24 -84 31 -144 7 -58 23 -154 37 -215 14 -60 28 -148 31 -195 2
-47 9 -93 14 -104 8 -14 7 -17 -3 -11 -9 6 -10 4 -3 -6 5 -8 10 -41 11 -74 1
-33 4 -72 6 -87 2 -15 0 -25 -4 -22 -5 3 -9 -31 -9 -75 0 -62 4 -82 15 -89 12
-6 19 -36 25 -108 6 -54 12 -118 14 -141 3 -23 1 -45 -5 -48 -5 -4 -6 -26 -2
-53 3 -26 6 -66 6 -90 -1 -25 3 -42 10 -42 8 0 7 -4 -1 -12 -16 -16 -16 -163
-1 -209 7 -19 19 -42 27 -51 8 -10 17 -41 19 -70 3 -39 2 -49 -6 -38 -9 13
-11 12 -11 -4 0 -11 7 -27 15 -36 31 -34 35 -214 5 -195 -6 4 -10 2 -10 -4 0
-5 -3 -18 -6 -28 -5 -15 -4 -15 5 -3 17 24 19 8 6 -55 -7 -33 -15 -77 -19 -97
l-7 -38 2291 0 2291 0 -4 27 c-3 16 -10 46 -16 68 -12 46 -74 305 -90 380 -17
81 -22 126 -14 138 4 6 7 23 7 37 1 14 5 31 10 39 5 8 5 12 0 8 -7 -4 -10 75
-5 114 2 12 188 62 243 65 31 1 66 8 78 14 12 6 48 12 80 13 32 1 56 5 53 10
-4 7 39 12 85 9 12 0 22 3 22 7 0 12 157 44 171 35 8 -4 9 -3 5 4 -5 8 5 12
31 13 21 1 63 4 93 7 30 2 72 5 93 6 20 0 37 4 37 7 0 6 170 42 203 43 9 0 17
4 17 8 0 4 15 8 34 8 19 0 38 5 41 10 4 6 14 10 23 9 23 -4 190 162 234 231
19 30 41 72 49 92 8 25 16 34 21 25 4 -6 5 5 1 25 -4 29 -2 38 8 38 9 0 10 3
3 8 -5 4 -10 21 -10 37 0 17 -3 63 -7 104 -7 68 -5 78 18 122 36 69 31 182 -9
210 -5 4 -6 22 -2 40 28 152 29 257 5 389 -20 109 -42 161 -85 204 -39 39 -42
47 -48 111 -8 101 -17 145 -27 139 -5 -3 -9 2 -9 11 0 9 -4 14 -9 10 -11 -6
-63 15 -73 30 -4 5 -7 40 -7 77 1 37 -2 72 -6 77 -3 6 -1 11 4 11 6 0 11 -5
11 -12 0 -6 2 -9 5 -6 8 8 -6 39 -15 33 -5 -3 -6 30 -3 74 3 52 1 81 -6 85 -6
4 -11 18 -11 31 0 13 -4 27 -10 30 -5 3 -10 15 -10 26 0 11 -18 38 -40 59 -32
31 -40 46 -40 74 0 20 -4 36 -10 36 -5 0 -10 18 -10 40 0 22 -4 40 -10 40 -5
0 -10 13 -10 29 0 17 -4 33 -10 36 -5 3 -10 24 -10 45 0 21 -4 42 -10 45 -6 3
-10 48 -10 100 0 52 -4 97 -10 100 -5 3 -10 20 -10 36 0 17 -9 49 -20 71 -11
23 -20 48 -20 55 0 7 -4 13 -10 13 -5 0 -10 8 -10 18 0 10 -9 24 -20 32 -11 8
-20 20 -20 26 0 6 -13 25 -30 42 l-30 32 1 250 c0 156 -4 257 -10 269 -6 11
-11 34 -11 52 0 30 -10 70 -30 124 -26 69 -47 102 -93 149 -71 71 -77 85 -77
166 0 39 -4 78 -9 88 -14 29 -31 87 -31 110 0 11 -4 24 -10 27 -5 3 -10 15
-10 26 0 10 -4 27 -9 37 -5 9 -18 36 -30 60 -41 83 -65 122 -73 122 -4 0 -8 6
-8 13 0 7 -8 22 -17 33 -10 10 -24 31 -32 47 -8 15 -18 27 -23 27 -4 0 -8 7
-8 15 0 28 -66 97 -111 117 -16 7 -29 16 -29 20 0 5 -7 8 -15 8 -8 0 -15 5
-15 10 0 6 -5 10 -10 10 -6 0 -24 13 -42 30 -17 16 -35 30 -40 30 -5 0 -27 18
-48 40 -21 22 -42 40 -47 40 -5 0 -18 8 -29 18 -29 26 -147 100 -221 139 -18
9 -33 20 -33 25 0 4 -5 8 -11 8 -6 0 -24 9 -39 20 -51 36 -143 81 -157 76 -7
-3 -13 -1 -13 4 0 5 -7 6 -17 3 -9 -4 -14 -2 -11 3 3 5 -10 9 -30 10 -42 1
-135 41 -126 55 3 5 -2 6 -10 3 -11 -4 -16 0 -17 12 0 13 -2 15 -6 5 -4 -11
-10 -8 -25 10 -11 13 -17 18 -13 12 9 -18 7 -18 -135 37 -71 28 -140 50 -153
50 -22 0 -71 32 -63 41 2 2 -12 5 -32 5 -41 2 -110 36 -217 106 -76 50 -113
86 -164 163 -42 61 -109 127 -122 119 -6 -3 -9 -43 -7 -89 1 -46 5 -82 7 -79
6 6 42 -77 36 -86 -3 -4 3 -22 11 -40 9 -18 20 -46 25 -64 14 -56 97 -286 119
-332 12 -24 26 -44 31 -44 5 0 9 -6 9 -14 0 -8 27 -38 61 -66 102 -89 129
-173 109 -342 -15 -129 -32 -206 -65 -298 -36 -98 -40 -103 -89 -97 -144 17
-496 153 -603 233 -17 13 -35 24 -38 24 -10 0 -269 176 -354 239 -40 31 -86
65 -101 76 -58 41 -179 140 -180 146 0 12 55 17 74 7 10 -5 29 -8 42 -5 13 2
24 0 24 -5 0 -13 73 -4 78 10 2 6 -3 12 -10 12 -16 0 -52 135 -42 152 5 7 0 9
-12 6 -17 -4 -19 0 -16 26 3 26 -1 33 -24 44 -16 6 -34 12 -41 12 -7 0 -13 9
-13 20 0 28 -30 60 -56 60 -12 0 -24 7 -28 15 -6 17 -36 21 -36 4 0 -6 -7 -3
-16 5 -8 9 -20 16 -26 16 -6 0 -8 11 -6 24 4 19 1 22 -14 18 -10 -2 -18 1 -18
7 0 6 -10 11 -21 11 -17 0 -20 5 -16 21 7 27 -1 49 -18 49 -45 0 -4 66 44 72
18 2 26 9 26 22 0 27 21 31 28 5 4 -14 11 -20 21 -16 8 3 18 2 21 -3 12 -19
35 3 35 33 0 17 -3 27 -6 24 -9 -8 -44 32 -44 49 0 14 54 44 81 44 10 0 21 5
24 10 5 8 11 8 19 1 9 -7 16 -7 25 2 11 9 14 9 18 0 3 -7 11 -13 19 -13 10 0
13 7 8 24 -5 20 0 27 27 40 18 9 40 16 51 16 12 0 18 7 18 25 0 26 9 27 98 9
18 -3 54 -1 80 6 26 7 61 14 77 17 17 2 34 9 39 14 6 5 19 9 30 9 19 0 49 8
133 38 23 8 73 42 110 76 38 33 92 77 120 96 54 36 61 55 15 40 -15 -5 -51
-11 -81 -15 -30 -3 -59 -9 -64 -12 -16 -10 -208 -10 -262 0 -27 5 -61 10 -75
12 -22 2 -54 14 -150 57 -14 6 -31 12 -38 12 -7 1 -17 7 -21 15 -5 7 -20 14
-34 14 -16 0 -38 12 -58 33 -20 20 -43 34 -57 34 -16 0 -22 5 -19 13 3 7 -4
19 -14 25 -10 7 -19 16 -19 22 0 5 -16 26 -35 47 -20 21 -38 50 -42 66 -3 15
-10 30 -14 33 -5 3 -9 13 -9 24 0 21 -26 35 -34 17 -2 -7 -8 -1 -12 12 -4 13
-18 44 -31 68 -12 24 -23 50 -23 57 0 7 -9 22 -20 34 -11 12 -20 27 -20 34 0
8 -8 21 -17 29 -75 67 -97 114 -96 209 0 35 4 47 21 54 19 9 31 39 48 111 3
17 9 24 11 18 3 -7 9 -13 14 -13 6 0 9 6 8 13 -5 41 2 77 16 77 21 0 19 16 -2
25 -16 6 -16 8 5 25 12 10 22 23 22 28 0 6 8 13 18 16 9 2 -1 2 -23 -1 -22 -3
-44 -9 -50 -12 -12 -9 -26 -8 -42 2 -16 10 -33 0 -33 -18 0 -8 -5 -17 -12 -21
-7 -5 -8 -3 -3 6 5 9 4 11 -3 6 -7 -4 -12 -16 -12 -27 0 -16 -7 -19 -40 -19
l-40 0 0 -53 c0 -41 -5 -58 -20 -72 -11 -10 -19 -25 -18 -34 2 -10 -6 -17 -19
-19 -17 -2 -23 -10 -23 -27 0 -13 -4 -27 -10 -30 -13 -8 -13 -85 0 -85 6 0 10
-11 10 -25 0 -25 -2 -25 -49 -16 -2 1 2 7 8 15 14 16 4 43 -23 66 -14 11 -16
9 -16 -13 0 -24 -21 -42 -34 -30 -3 4 -6 24 -6 45 0 31 -3 38 -20 38 -17 0
-20 7 -20 53 0 51 -17 107 -32 107 -5 0 -8 -19 -9 -42 0 -24 -3 -36 -6 -28 -3
8 -11 22 -18 30 -7 8 -15 39 -18 68 -6 50 -5 52 18 52 24 0 33 22 34 80 1 8 3
29 7 46 5 27 2 32 -24 43 -34 14 -42 34 -42 106 0 34 3 45 9 36 8 -12 11 -8
17 14 4 17 13 36 21 43 7 8 11 18 8 23 -8 12 -35 11 -35 -2 0 -5 -4 -7 -10 -4
-5 3 -10 15 -10 26 0 11 3 18 8 16 4 -3 7 27 7 66 l0 71 33 7 c41 8 51 17 32
29 -12 7 -11 12 8 28 27 23 28 37 4 62 -13 14 -16 31 -14 64 2 25 7 44 11 42
4 -3 6 12 4 32 -2 34 -2 35 6 10 5 -15 11 -44 13 -66 3 -21 12 -47 21 -58 9
-10 23 -28 31 -39 8 -11 18 -16 22 -12 5 4 2 12 -6 17 -25 15 -5 20 30 7 26
-9 34 -9 37 1 3 6 11 12 19 12 8 0 24 10 35 21 14 14 24 17 28 11 9 -15 52
-12 73 6 12 10 62 17 166 23 83 5 163 14 178 20 16 6 56 14 89 18 55 6 60 8
63 32 2 21 -8 36 -46 71 -62 55 -101 68 -223 75 -81 5 -105 2 -160 -16 -35
-12 -76 -29 -92 -37 -15 -8 -33 -12 -40 -8 -6 4 -9 3 -4 -1 4 -5 -10 -17 -30
-26 -21 -10 -32 -18 -25 -19 18 0 15 -20 -4 -20 -9 0 -24 -10 -34 -22 -15 -19
-20 -20 -33 -9 -9 7 -21 10 -27 6 -6 -3 -10 3 -10 15 0 16 4 20 15 16 10 -4
19 2 24 17 6 15 24 28 53 37 59 19 61 20 47 36 -9 11 -8 14 4 14 8 0 17 7 21
15 3 8 14 15 24 15 10 0 29 11 42 25 13 14 29 25 36 25 7 0 17 14 23 30 9 27
15 30 50 30 21 0 41 5 43 12 2 6 22 12 44 13 21 2 41 4 44 5 3 1 22 1 43 0 34
-1 57 -12 129 -62 10 -7 31 -38 48 -70 17 -32 35 -58 41 -58 5 0 9 -5 9 -11 0
-6 11 -24 25 -41 14 -16 25 -42 25 -57 0 -35 -19 -91 -31 -91 -5 0 -9 -25 -9
-55 0 -40 -4 -57 -15 -61 -19 -8 -20 -24 -1 -24 23 0 31 -22 13 -35 -15 -10
-15 -14 -2 -31 8 -10 15 -27 15 -36 0 -21 20 -25 20 -5 0 8 11 19 25 25 14 6
25 17 25 23 0 6 11 20 25 31 14 11 25 30 25 44 0 20 5 24 30 24 24 0 30 4 30
21 0 27 24 51 44 43 10 -4 20 3 28 21 10 23 10 28 -5 36 -22 13 -22 39 0 39
14 0 14 2 -2 20 -10 11 -24 20 -31 20 -7 0 -16 9 -19 20 -3 11 -12 20 -19 20
-11 0 -11 10 -3 46 8 33 8 51 0 64 -9 13 -9 21 0 30 9 10 9 14 0 17 -7 3 -13
13 -13 24 0 12 -10 23 -25 29 -14 5 -28 17 -31 25 -4 8 -13 15 -20 15 -8 0
-17 7 -20 15 -4 8 -12 15 -20 15 -7 0 -16 11 -20 25 -4 15 -13 25 -24 25 -12
0 -20 9 -22 23 -2 12 -9 21 -15 20 -7 -2 -46 15 -88 37 -42 22 -83 40 -91 40
-8 0 -14 5 -14 11 0 6 9 9 20 6 11 -3 20 -1 20 4 0 5 -17 9 -37 9 l-38 0 1 75
c0 64 4 77 22 94 23 19 29 41 12 41 -19 0 -10 39 12 54 13 10 22 27 23 43 0
25 4 28 38 31 35 3 37 5 37 38 0 27 4 34 19 34 11 0 26 8 33 18 7 11 24 25 38
32 14 7 32 20 40 30 18 21 110 38 110 20 0 -6 5 -8 12 -3 7 4 30 8 52 9 30 2
39 -2 43 -17 6 -20 18 -25 28 -10 7 12 68 11 76 -1 10 -15 142 -15 147 0 2 6
13 12 23 12 11 0 17 -4 14 -10 -9 -14 58 -13 73 2 9 9 12 7 12 -10 0 -25 3
-26 28 -11 25 16 172 -53 172 -80 0 -10 7 -24 16 -32 26 -21 46 -70 42 -100
-4 -26 2 -34 25 -30 10 1 9 -47 -2 -53 -17 -11 -101 6 -101 20 0 8 -4 14 -10
14 -5 0 -10 -4 -10 -8 0 -5 -14 -7 -31 -4 -25 4 -36 -2 -62 -30 -18 -19 -40
-38 -49 -41 -10 -4 -18 -14 -18 -24 0 -11 -15 -27 -36 -38 -19 -10 -43 -31
-52 -47 -9 -15 -23 -28 -30 -28 -10 0 -12 -6 -7 -17 4 -10 9 -26 12 -35 9 -32
176 -9 189 26 3 8 20 18 37 22 18 4 36 12 42 19 5 7 34 16 63 20 44 6 52 4 52
-9 0 -17 27 -21 48 -7 9 5 22 0 37 -15 13 -13 29 -24 35 -24 5 0 10 -10 11
-22 0 -13 3 -17 6 -10 7 18 53 -25 53 -50 0 -10 4 -18 8 -18 4 0 14 -17 21
-37 19 -53 120 -284 135 -308 20 -32 84 -235 96 -308 12 -67 26 -86 32 -44 5
31 -15 134 -36 181 -21 49 -48 165 -41 176 3 5 1 11 -5 15 -13 8 -13 75 0 75
6 0 10 -4 10 -10 0 -5 6 -10 13 -10 15 0 65 -124 72 -178 3 -21 11 -56 18 -77
13 -36 15 -38 24 -20 22 42 24 118 5 185 -25 85 -62 170 -74 170 -5 0 -16 7
-24 15 -8 8 -25 21 -36 30 -18 12 -21 23 -19 60 1 24 -3 54 -9 65 -8 15 -8 25
-1 34 6 7 8 16 4 20 -4 3 -8 93 -10 199 -1 105 -4 210 -7 232 -4 41 -5 47 -24
104 -12 37 -9 51 14 51 17 0 19 16 3 26 -6 3 -9 15 -6 25 3 10 -2 24 -10 30
-8 7 -12 21 -10 31 3 10 0 24 -7 31 -31 31 -47 66 -40 91 5 20 2 26 -10 26 -8
0 -23 11 -31 24 -15 23 -33 32 -84 45 -33 8 -39 31 -9 31 13 0 19 4 13 8 -16
12 -44 66 -49 98 -6 29 -48 69 -75 69 -21 0 -24 45 -4 67 17 19 17 21 1 32
-10 7 -22 24 -27 37 -7 18 -10 20 -10 6 -1 -10 -6 -15 -11 -12 -6 4 -8 10 -6
14 3 4 -10 15 -29 24 -28 13 -35 22 -34 44 l1 28 8 -25 c9 -24 9 -24 7 5 -1
18 -7 29 -14 28 -7 -2 -13 2 -13 7 0 5 -6 9 -12 7 -7 -1 -12 4 -11 11 3 14
-13 16 -22 2 -7 -11 -55 -9 -55 2 0 4 -9 8 -20 8 -11 0 -20 5 -20 10 0 6 -9
10 -20 10 -11 0 -28 9 -37 20 -10 11 -26 20 -36 20 -11 0 -17 6 -15 17 2 10
-1 18 -7 18 -38 3 -85 18 -80 26 4 5 -8 9 -24 9 -17 0 -31 5 -31 11 0 6 -7 9
-15 5 -9 -3 -15 0 -15 9 0 10 -11 15 -34 15 -18 0 -44 8 -57 19 -13 10 -34 21
-46 25 -13 4 -23 10 -23 14 0 4 -19 6 -43 4 -50 -4 -127 14 -127 30 0 7 -5 6
-15 -2 -8 -7 -15 -8 -15 -3 0 15 -62 34 -76 22 -8 -7 -14 -7 -19 1 -4 6 -24 8
-51 5 -30 -3 -44 -1 -44 7 0 6 -6 4 -13 -7 -9 -12 -16 -14 -21 -7 -5 8 -14 8
-34 1 -15 -6 -47 -12 -71 -15 -25 -2 -48 -9 -52 -15 -3 -6 -11 2 -17 20 -13
36 -18 38 -27 10z m-800 -2879 c22 -21 45 -39 51 -40 7 0 15 -7 18 -16 3 -8 2
-13 -3 -10 -11 7 -21 -18 -21 -54 0 -42 53 -50 63 -9 3 10 10 19 16 19 24 0
-6 -86 -36 -103 -7 -5 -10 -13 -7 -19 5 -7 -7 -9 -40 -4 -31 5 -46 4 -46 -4 0
-6 -4 -9 -9 -6 -4 3 -6 16 -4 29 3 14 -2 29 -11 36 -9 8 -16 22 -16 32 0 11
-7 19 -15 19 -18 0 -19 20 -3 56 11 25 10 28 -26 57 l-38 30 34 13 c49 18 50
17 93 -26z m689 -5490 c72 -11 87 -25 127 -109 17 -36 35 -68 39 -71 4 -3 38
-52 75 -110 37 -58 89 -125 115 -150 46 -44 92 -118 89 -143 -3 -27 3 -37 60
-95 53 -54 60 -66 66 -114 4 -29 16 -91 26 -137 14 -61 16 -87 8 -97 -6 -7
-10 -37 -9 -66 2 -29 1 -57 0 -63 -1 -5 -3 -17 -4 -25 -1 -10 -15 -16 -45 -18
-32 -2 -44 -8 -48 -21 -3 -10 -21 -23 -42 -29 -99 -30 -249 50 -198 106 10 10
17 28 17 40 0 23 4 22 -115 27 -41 2 -67 11 -160 55 -80 38 -100 42 -328 69
-90 11 -121 27 -142 77 -22 53 -19 70 16 95 29 21 38 22 154 16 94 -4 132 -10
162 -25 45 -23 213 -78 266 -88 20 -3 40 -10 43 -15 3 -5 9 -7 13 -5 4 3 24 1
44 -4 47 -10 40 2 -18 29 -25 12 -45 28 -45 36 0 8 -9 16 -20 16 -24 2 -28 3
-62 17 -15 6 -72 14 -127 18 -56 4 -101 10 -101 13 0 12 -162 31 -245 31 -44
-1 -147 -2 -230 -3 -145 -2 -151 -1 -177 22 -17 15 -31 42 -39 74 -11 47 -10
52 10 68 35 28 133 34 539 32 329 -2 382 0 382 12 0 8 -6 15 -14 15 -8 0 -16
5 -18 10 -2 6 -71 12 -175 14 -94 2 -176 7 -182 10 -20 13 -266 7 -333 -7 -37
-9 -76 -13 -87 -10 -10 3 -22 0 -25 -6 -4 -6 -34 -11 -67 -11 -46 0 -59 3 -59
15 0 9 -8 18 -17 22 -81 28 -83 126 -5 175 52 32 92 37 392 49 341 14 562 25
533 27 -12 1 -23 6 -25 12 -5 15 -182 32 -212 20 -27 -10 -56 -4 -68 13 -4 7
-32 4 -80 -7 -108 -25 -268 -43 -308 -35 -39 8 -80 49 -80 81 0 59 82 118 196
137 32 6 75 15 94 20 40 11 353 4 444 -9z m2796 5 c0 -6 -119 -85 -129 -85 -4
0 -16 -10 -27 -21 l-19 -22 30 7 c73 18 105 19 105 2 0 -10 -9 -16 -25 -16
-34 0 -82 -25 -122 -63 -33 -30 -43 -24 -23 14 9 15 7 19 -7 19 -10 0 -24 -9
-31 -21 -13 -21 -26 -19 -27 4 -1 7 -5 25 -9 40 -7 24 -3 33 27 64 22 21 47
36 64 38 15 1 37 5 48 9 11 5 36 14 55 21 34 14 90 20 90 10z m63 -416 c51
-17 106 -37 122 -44 17 -7 44 -19 60 -25 35 -13 108 -77 118 -103 4 -10 11
-16 16 -12 18 11 60 -59 67 -113 4 -31 13 -56 20 -59 8 -3 14 -16 14 -29 0
-13 5 -24 10 -24 6 0 10 -28 10 -65 0 -50 -4 -67 -15 -70 -8 -3 -23 -8 -32
-12 -22 -8 -42 -5 -70 9 -28 14 -51 3 -110 -51 -29 -27 -55 -41 -84 -46 -39
-7 -75 -21 -89 -35 -3 -3 -26 -16 -52 -30 -27 -13 -48 -28 -48 -33 0 -4 -11
-12 -25 -17 -21 -8 -30 -25 -27 -51 1 -4 -8 -5 -19 -2 -11 3 -19 2 -17 -3 2
-9 -32 -51 -94 -115 -21 -22 -38 -43 -38 -49 0 -5 -6 -10 -14 -10 -8 0 -16 -7
-20 -15 -3 -8 -10 -15 -15 -15 -6 0 -35 -25 -66 -55 -38 -38 -63 -55 -82 -56
-24 -2 -25 -2 -5 -6 29 -6 19 -23 -14 -23 -14 0 -24 -6 -24 -14 0 -20 -28 -46
-43 -40 -7 2 -19 -7 -27 -21 -7 -14 -18 -25 -24 -25 -7 0 -19 -8 -28 -17 -30
-32 -46 -42 -65 -40 -16 1 -20 9 -21 39 -1 21 3 38 8 38 15 0 12 56 -4 69 -8
7 -17 27 -21 44 -11 60 -59 182 -94 244 -52 91 -93 135 -216 236 -60 49 -111
94 -112 99 -1 4 1 4 3 -1 6 -12 55 8 67 26 4 7 16 13 26 13 10 0 26 9 35 19
10 11 25 17 37 14 10 -3 19 0 19 6 0 6 11 16 25 21 14 5 28 17 31 25 4 8 13
15 21 15 8 0 24 5 36 12 12 7 29 13 37 14 7 2 21 12 30 24 8 11 32 23 53 27
30 4 35 8 26 19 -9 11 -6 14 14 14 19 0 25 4 21 14 -4 11 5 17 30 21 20 4 34
11 31 15 -2 4 13 15 34 24 21 10 51 29 66 42 16 14 35 22 42 20 7 -3 13 -2 13
3 0 5 8 12 18 15 34 13 72 37 72 47 0 5 5 9 11 9 12 0 101 59 110 73 4 5 18
10 33 10 14 1 26 6 26 10 0 12 41 26 78 26 19 1 75 -13 125 -30z"/>
<path d="M3650 9725 c0 -15 -33 -38 -42 -29 -3 2 -11 -8 -17 -24 -7 -16 -23
-35 -37 -42 -20 -11 -24 -21 -24 -62 0 -27 5 -58 10 -68 6 -11 12 -33 14 -50
5 -43 13 -47 21 -11 9 43 29 53 23 11 -3 -21 0 -34 9 -37 7 -3 13 -14 13 -24
0 -11 8 -22 18 -25 9 -3 28 -10 41 -15 14 -6 60 -12 103 -15 63 -3 80 -1 84
11 4 8 12 15 19 15 30 0 23 20 -11 35 -39 16 -41 22 -8 28 10 2 37 11 59 21
21 9 66 19 100 22 74 6 135 24 135 38 -1 23 -27 44 -70 57 -25 7 -49 16 -55
20 -9 6 -112 21 -162 23 -37 2 -36 14 4 26 37 12 66 30 48 30 -28 0 -146 -24
-177 -36 -25 -9 -38 -10 -38 -3 0 6 8 13 18 16 16 4 14 9 -15 41 -18 20 -31
42 -29 49 3 8 -2 13 -14 13 -11 0 -20 -7 -20 -15z"/>
<path d="M3100 8973 c0 -8 -13 -26 -29 -41 -15 -15 -46 -52 -68 -82 -22 -30
-60 -75 -84 -100 -24 -25 -43 -48 -42 -52 2 -4 -8 -10 -20 -14 -16 -3 -29 -18
-38 -42 -8 -20 -33 -75 -56 -120 -53 -103 -59 -172 -19 -215 14 -15 27 -36 31
-47 3 -11 15 -24 25 -30 11 -6 16 -17 13 -29 -3 -10 0 -22 6 -25 6 -4 11 -2
11 4 0 8 10 9 30 5 29 -6 30 -5 30 30 l0 36 33 -22 c17 -13 36 -29 40 -36 4
-7 15 -13 22 -13 8 0 15 -7 15 -15 0 -8 5 -15 11 -15 6 0 27 -16 47 -34 23
-22 51 -37 76 -42 22 -3 48 -15 59 -25 11 -10 23 -16 27 -14 10 6 20 -33 13
-51 -7 -19 -43 -18 -43 1 0 8 -5 15 -10 15 -6 0 -13 -7 -16 -15 -4 -8 -12 -15
-20 -15 -8 0 -14 -5 -14 -11 0 -6 6 -9 14 -6 18 7 36 -11 29 -29 -3 -8 -13
-14 -23 -14 -26 0 -51 -11 -45 -20 3 -4 -1 -13 -9 -19 -12 -10 -8 -18 20 -45
19 -18 34 -38 34 -45 0 -6 3 -10 8 -9 4 1 32 -2 62 -6 30 -5 63 -8 73 -7 10 1
17 -4 17 -14 0 -10 5 -13 12 -9 6 4 41 9 77 11 73 5 121 9 136 13 6 1 19 2 30
1 22 -1 63 29 67 50 2 7 11 18 22 24 10 5 18 13 17 18 -1 4 25 28 56 54 32 26
61 51 65 57 11 16 -15 19 -64 5 -24 -6 -61 -12 -84 -14 -22 -1 -50 -6 -62 -9
-15 -5 -22 -3 -22 6 0 10 -2 11 -8 0 -13 -20 -149 -24 -167 -5 -9 8 -13 19 -9
24 3 6 -4 7 -19 4 -22 -6 -24 -4 -20 20 5 24 7 25 27 11 20 -12 24 -12 34 2 9
14 13 14 20 4 7 -10 12 -10 22 3 12 15 15 15 20 2 4 -13 12 -13 60 0 41 10 61
11 78 3 20 -9 27 -7 43 14 13 17 33 26 68 31 27 4 57 14 67 24 11 9 27 15 37
13 10 -2 20 4 24 15 4 10 15 24 25 31 10 7 30 34 45 60 15 26 35 56 45 67 26
28 88 156 88 182 0 12 -9 27 -20 33 -23 12 -190 20 -190 9 0 -4 -20 -7 -45 -7
-27 1 -52 -5 -62 -14 -18 -15 -108 -24 -223 -21 -216 5 -299 5 -311 -3 -8 -5
-34 -9 -59 -10 -25 -1 -57 -5 -72 -9 -24 -6 -27 -5 -23 13 5 28 41 62 65 62
11 0 20 5 20 11 0 5 5 7 11 4 5 -4 52 -8 102 -9 63 -2 91 -7 89 -15 -1 -6 5
-11 13 -11 8 0 15 7 15 15 0 8 9 15 20 15 22 0 27 15 8 24 -7 2 -2 4 12 3 19
-2 24 2 22 16 -2 11 6 21 23 27 16 6 25 16 23 27 -2 12 9 22 39 33 23 8 53 28
67 44 l24 29 -29 29 c-17 18 -38 29 -51 27 -13 -1 -31 1 -40 5 -34 15 -142 10
-183 -9 -22 -9 -53 -19 -70 -20 -16 -2 -42 -7 -57 -10 -15 -4 -39 -4 -53 -1
-20 5 -25 13 -25 38 0 24 10 41 44 74 63 60 101 81 119 65 22 -17 28 1 8 21
-15 15 -20 15 -42 4 -20 -10 -29 -11 -42 -1 -10 7 -17 17 -17 22 0 6 -11 13
-25 15 -17 4 -25 1 -25 -9z m736 -559 c8 -30 21 -31 27 -1 3 20 4 19 11 -8 6
-25 16 -51 34 -88 2 -4 -4 -4 -13 -1 -11 5 -18 0 -22 -15 -3 -14 -13 -21 -29
-21 -21 0 -23 -4 -18 -24 4 -19 1 -26 -15 -31 -12 -3 -21 -13 -21 -22 0 -22
-32 -73 -46 -73 -6 0 -14 -10 -18 -22 -4 -18 -8 -20 -17 -11 -9 9 -19 8 -40
-8 -24 -17 -32 -18 -51 -8 -13 7 -25 11 -28 10 -3 -1 -6 8 -8 19 -2 12 -10 19
-19 18 -9 -2 -18 3 -21 11 -3 9 1 11 17 6 24 -7 26 2 7 27 -12 16 -14 16 -25
-8 -7 -16 -8 -31 -2 -42 6 -10 4 -23 -6 -38 -13 -20 -18 -21 -39 -12 -15 7
-23 17 -19 26 9 24 -4 31 -33 16 -33 -17 -53 -18 -31 -1 15 12 15 14 -2 36
-18 22 -21 23 -37 7 -31 -28 -75 -17 -46 11 22 22 11 26 -22 8 -16 -8 -23 -15
-16 -15 6 0 12 -4 12 -10 0 -5 -7 -10 -15 -10 -8 0 -15 6 -15 13 0 18 -63 39
-94 31 -21 -5 -25 -3 -20 10 3 9 14 16 23 16 14 1 14 2 -2 11 -9 5 -22 7 -27
4 -12 -8 -13 -3 0 29 13 35 54 35 76 1 19 -29 38 -23 32 10 -3 13 3 33 12 46
l18 22 11 -21 c15 -27 25 -27 55 -1 24 21 76 31 144 29 19 0 49 9 68 21 23 14
53 22 87 23 39 1 52 5 52 16 1 14 6 14 48 3 11 -4 17 0 17 10 0 19 28 37 47
30 7 -3 16 -16 19 -29z"/>
<path d="M3825 8959 c35 -31 60 -76 85 -151 6 -21 17 -38 23 -39 7 0 27 -19
45 -42 28 -34 33 -47 28 -75 -3 -23 -1 -35 10 -39 7 -3 14 -9 14 -15 0 -12 21
-32 42 -41 17 -6 38 -63 38 -104 0 -13 4 -23 8 -23 5 0 13 -9 18 -20 14 -31
33 -10 50 56 9 32 22 63 31 67 10 6 13 21 12 47 -2 22 0 42 4 46 4 4 4 19 1
33 -3 14 -7 36 -10 49 -2 12 -9 22 -15 22 -5 0 -27 17 -49 39 -21 21 -54 45
-72 54 -31 14 -87 57 -130 100 -10 9 -22 17 -26 17 -5 0 -19 10 -31 22 -15 13
-40 23 -68 25 l-45 4 37 -32z"/>
<path d="M3230 7039 c0 -7 11 -9 30 -5 24 4 30 2 29 -12 0 -9 -3 -12 -5 -5 -4
8 -13 9 -27 4 -28 -11 -29 -11 -72 -11 -23 0 -35 -5 -35 -14 0 -9 -8 -12 -24
-9 -35 7 -42 -15 -9 -29 15 -7 37 -21 48 -31 11 -10 30 -16 42 -14 12 2 24 0
26 -6 1 -5 32 -10 68 -12 36 -1 71 -5 77 -9 7 -4 12 -1 12 8 0 8 -8 20 -17 25
-15 9 -13 10 13 11 18 0 39 8 50 21 19 21 19 21 -19 54 -28 24 -45 31 -67 29
-16 -2 -32 1 -35 6 -9 14 -85 13 -85 -1z"/>
</g>
</svg>
